<svg version="1.1" id="Layer_1" xmlns="http://www.w3.org/2000/svg" xmlns:xlink="http://www.w3.org/1999/xlink" x="0px" y="0px"
	 width="100%" viewBox="0 0 640 200" enable-background="new 0 0 640 200" xml:space="preserve">
<path fill="#000000" opacity="1.000000" stroke="none" 
	d="
M465.000000,201.000000 
	C310.000031,201.000000 155.500031,201.000000 1.000041,201.000000 
	C1.000028,134.333359 1.000028,67.666718 1.000014,1.000059 
	C214.333267,1.000040 427.666534,1.000040 640.999878,1.000020 
	C640.999878,67.666603 640.999878,134.333206 640.999939,200.999908 
	C582.500000,201.000000 524.000000,201.000000 465.000000,201.000000 
M305.500000,25.997391 
	C285.737305,25.997391 265.974609,25.997391 246.284561,25.997391 
	C246.284561,75.976105 246.284561,125.380028 246.284561,174.715408 
	C295.976166,174.715408 345.380066,174.715408 394.715363,174.715408 
	C394.715363,125.023773 394.715363,75.619858 394.715363,25.997391 
	C365.119141,25.997391 335.809570,25.997391 305.500000,25.997391 
z"/>
<path fill="#FDFEFE" opacity="1.000000" stroke="none" 
	d="
M306.000000,25.997391 
	C335.809570,25.997391 365.119141,25.997391 394.715363,25.997391 
	C394.715363,75.619858 394.715363,125.023773 394.715363,174.715408 
	C345.380066,174.715408 295.976166,174.715408 246.284561,174.715408 
	C246.284561,125.380028 246.284561,75.976105 246.284561,25.997391 
	C265.974609,25.997391 285.737305,25.997391 306.000000,25.997391 
M327.403076,141.084747 
	C326.899658,141.078690 326.396210,141.072632 325.374939,141.088654 
	C325.188110,141.372498 325.001282,141.656326 324.106171,141.952652 
	C320.824036,139.924927 316.159515,141.817566 313.328979,138.179596 
	C313.128571,137.922028 310.380920,138.817657 310.098694,139.624924 
	C309.509827,141.309021 309.412201,143.386169 309.851990,145.113632 
	C310.066132,145.954727 311.998383,146.974365 313.055359,146.875076 
	C316.985809,146.505829 320.875763,145.705719 325.236877,145.725052 
	C326.634918,145.801178 328.032928,145.877304 330.866089,146.031570 
	C329.581696,143.693573 328.869873,142.397842 327.403076,141.084747 
M347.736176,143.909882 
	C347.493866,143.180893 347.251556,142.451889 346.866943,141.097153 
	C345.912170,141.391068 344.957428,141.684998 343.207764,142.145935 
	C337.715759,139.656952 336.135315,140.447952 336.084320,146.614792 
	C338.850281,146.062195 341.414978,145.549789 344.099091,145.707794 
	C346.690735,148.508560 346.766205,146.082443 347.736176,143.909882 
M314.472717,86.582527 
	C309.866608,83.272903 307.669373,84.075226 304.382812,90.378571 
	C293.054840,82.099098 293.054840,82.099098 288.959900,82.691628 
	C298.808289,91.325592 303.166351,102.390137 304.770172,114.777245 
	C305.088684,117.237488 305.532684,119.683792 306.012878,122.117989 
	C306.074707,122.431488 306.705444,122.632759 307.112213,122.913315 
	C308.000580,121.758293 308.795929,120.724197 309.753601,119.479073 
	C310.298096,122.144356 310.748749,124.350357 311.199432,126.556351 
	C311.668518,126.690384 312.137604,126.824409 312.606689,126.958443 
	C315.161011,121.879593 317.715363,116.800751 320.759155,112.242828 
	C323.133423,117.194443 325.507721,122.146057 327.881989,127.097679 
	C328.372009,126.939743 328.862061,126.781807 329.352081,126.623878 
	C329.820282,124.501495 330.288483,122.379120 330.820068,119.969368 
	C332.035797,121.245667 332.934998,122.189659 334.708466,124.051445 
	C336.383423,107.974670 339.031616,93.309273 351.194489,82.269493 
	C348.787659,82.317413 346.884674,82.700829 345.347137,83.666245 
	C342.133850,85.683861 339.113403,88.008537 335.483734,89.814514 
	C336.382416,86.320557 334.924622,83.582588 331.963623,82.218185 
	C328.925690,80.818336 326.295898,82.269608 324.495361,85.084320 
	C324.065826,85.755760 323.479401,86.326820 322.257385,86.677681 
	C321.195770,82.663849 320.134125,78.650009 319.072510,74.636177 
	C318.737396,74.643394 318.402252,74.650612 318.067139,74.657822 
	C317.622742,78.768265 317.178314,82.878708 316.145538,86.982643 
	C315.753265,86.989723 315.360992,86.996811 314.472717,86.582527 
M282.291382,140.278534 
	C280.277374,139.992996 278.166931,139.261841 276.302124,139.665527 
	C275.656433,139.805328 274.855255,143.782883 275.455933,144.233490 
	C276.996765,145.389374 279.283936,145.550339 281.931000,145.968979 
	C282.970825,145.999329 284.010559,146.052658 285.050446,146.055862 
	C288.585968,146.066803 292.121552,146.060043 295.766449,146.060043 
	C294.599792,143.612183 293.797607,141.929001 293.006744,140.269608 
	C289.488708,140.510391 285.988831,140.749924 282.291382,140.278534 
M301.055542,69.538216 
	C301.520569,69.305267 302.405853,69.036118 302.389343,68.844650 
	C301.942566,63.656212 296.232117,58.848175 290.758972,59.115715 
	C290.317566,64.458717 292.926544,68.225609 297.061554,71.099251 
	C297.521576,71.418953 298.740295,70.647018 300.057373,69.918777 
	C300.193329,69.752014 300.329254,69.585251 301.055542,69.538216 
M325.679321,56.138153 
	C324.217438,52.784142 322.755554,49.430130 321.128479,45.697105 
	C313.845337,52.681583 312.792694,62.175205 318.057281,68.440247 
	C318.790009,66.906601 319.455627,65.513367 320.271698,63.805183 
	C321.132751,65.645767 321.806671,67.086342 322.480621,68.526924 
	C323.010925,68.567841 323.541229,68.608757 324.071533,68.649666 
	C324.644196,64.756187 325.216827,60.862713 325.679321,56.138153 
M330.982147,56.612785 
	C329.961517,59.812584 328.940918,63.012383 327.920319,66.212181 
	C327.873077,67.084984 327.825867,67.957787 327.778625,68.830589 
	C332.373291,62.884319 331.405243,68.542534 333.045258,68.650803 
	C339.504639,61.867954 340.816101,57.119743 337.564728,50.370853 
	C335.406128,52.339813 333.401794,54.168026 330.982147,56.612785 
M306.886414,68.335289 
	C307.046387,68.379890 307.208038,68.463371 307.365753,68.456398 
	C307.484924,68.451118 307.703339,68.324471 307.699860,68.261673 
	C307.627502,66.954300 307.529724,65.648338 307.397217,63.782223 
	C309.138458,65.008255 310.344025,65.857094 311.761871,66.855408 
	C312.210083,58.583920 308.471222,52.678535 301.992188,51.246735 
	C299.760559,57.795963 301.638763,63.217442 306.886414,68.335289 
M307.866241,152.850021 
	C304.550995,152.899429 301.068878,152.338669 297.971771,153.185669 
	C295.357056,153.900696 291.720184,149.668015 289.585724,154.912048 
	C292.331207,155.518524 294.765594,156.775162 296.923340,156.407639 
	C305.933899,154.872910 314.873230,155.963623 323.847107,156.341110 
	C324.815857,156.381882 325.827423,155.404358 326.819153,154.899185 
	C325.886383,154.261688 324.983429,153.127930 324.015839,153.069748 
	C318.923492,152.763641 313.814819,152.729187 307.866241,152.850021 
M342.217010,61.706333 
	C340.685059,64.101669 339.153107,66.497009 338.229309,67.941475 
	C340.171783,69.851501 341.168640,70.831718 342.277985,71.922516 
	C347.182922,69.010605 350.222534,65.007111 349.674683,57.807426 
	C346.988342,59.133080 344.871796,60.177555 342.217010,61.706333 
M357.840363,68.256706 
	C354.036163,65.933922 350.556427,67.679100 347.606781,72.986763 
	C348.615540,74.511887 349.317383,75.572952 350.747009,77.734383 
	C353.230042,74.636993 355.484497,71.824730 357.840363,68.256706 
M345.312927,156.010208 
	C346.756256,155.843674 348.199585,155.677124 349.642914,155.510590 
	C349.633667,154.839813 349.624420,154.169037 349.615143,153.498260 
	C342.943970,153.154755 336.272797,152.811249 329.601624,152.467743 
	C329.319153,152.880020 329.036652,153.292313 328.754181,153.704590 
	C329.929413,154.468277 331.064667,155.805374 332.287170,155.890518 
	C336.318237,156.171249 340.380859,155.999069 345.312927,156.010208 
M282.985718,67.506119 
	C284.789795,70.249390 286.406311,73.161285 288.576874,75.574982 
	C288.951904,75.992004 291.676453,74.296211 293.474243,73.506729 
	C290.995636,69.269028 288.210846,66.744858 282.985718,67.506119 
M361.445801,146.174011 
	C365.321320,147.000259 367.903229,145.386154 369.733765,141.384583 
	C365.750458,141.137299 362.015594,140.905441 358.139954,140.664856 
	C359.616089,142.872406 360.498718,144.192398 361.445801,146.174011 
M356.261078,76.259720 
	C354.920837,77.844421 353.580597,79.429131 352.240356,81.013832 
	C352.790009,81.650528 353.339691,82.287224 353.889343,82.923920 
	C356.642883,81.131485 359.396423,79.339050 362.149963,77.546616 
	C361.881195,77.047928 361.612457,76.549248 361.343689,76.050560 
	C359.889587,76.050560 358.435486,76.050560 356.261078,76.259720 
M283.257843,81.389175 
	C284.893494,80.964661 286.529114,80.540146 288.164764,80.115631 
	C288.119781,79.342842 288.074768,78.570053 288.029785,77.797264 
	C285.169189,77.041229 282.308594,76.285187 279.447998,75.529144 
	C278.756592,76.501656 278.065186,77.474159 277.373779,78.446671 
	C279.101868,79.318443 280.829956,80.190216 283.257843,81.389175 
z"/>
<path fill="#0FA99F" opacity="1.000000" stroke="none" 
	d="
M316.733887,86.989151 
	C317.178314,82.878708 317.622742,78.768265 318.067139,74.657822 
	C318.402252,74.650612 318.737396,74.643394 319.072510,74.636177 
	C320.134125,78.650009 321.195770,82.663849 322.640381,87.141907 
	C323.328156,88.658432 323.632965,89.710716 323.675293,90.969955 
	C324.899200,94.745728 326.385651,98.314552 328.220886,102.720825 
	C330.578918,98.727905 332.301331,95.811241 334.178528,92.660950 
	C334.893463,91.687241 335.453583,90.947166 336.013733,90.207092 
	C339.113403,88.008537 342.133850,85.683861 345.347137,83.666245 
	C346.884674,82.700829 348.787659,82.317413 351.194489,82.269493 
	C339.031616,93.309273 336.383423,107.974670 334.708466,124.051445 
	C332.934998,122.189659 332.035797,121.245667 330.820068,119.969368 
	C330.288483,122.379120 329.820282,124.501495 329.352081,126.623878 
	C328.862061,126.781807 328.372009,126.939743 327.881989,127.097679 
	C325.507721,122.146057 323.133423,117.194443 320.469208,111.592796 
	C318.801910,105.557465 317.424530,100.172173 316.065857,94.399002 
	C316.301025,91.670464 316.517456,89.329803 316.733887,86.989151 
z"/>
<path fill="#F7AF49" opacity="1.000000" stroke="none" 
	d="
M316.047150,94.786880 
	C317.424530,100.172173 318.801910,105.557465 320.224487,111.332336 
	C317.715363,116.800751 315.161011,121.879593 312.606689,126.958443 
	C312.137604,126.824409 311.668518,126.690384 311.199432,126.556351 
	C310.748749,124.350357 310.298096,122.144356 309.753601,119.479073 
	C308.795929,120.724197 308.000580,121.758293 307.112213,122.913315 
	C306.705444,122.632759 306.074707,122.431488 306.012878,122.117989 
	C305.532684,119.683792 305.088684,117.237488 304.770172,114.777245 
	C303.166351,102.390137 298.808289,91.325592 288.959900,82.691628 
	C293.054840,82.099098 293.054840,82.099098 304.692322,90.191582 
	C305.001862,90.004593 305.019714,89.948303 304.800812,90.214233 
	C305.150940,90.970314 305.719971,91.460449 306.497314,92.076431 
	C307.154083,92.669754 307.602570,93.137238 307.785767,93.814064 
	C308.925903,96.665184 310.331238,99.306953 312.284729,102.979126 
	C313.896515,99.469688 314.971832,97.128281 316.047150,94.786880 
z"/>
<path fill="#83B44C" opacity="1.000000" stroke="none" 
	d="
M325.734406,56.553696 
	C325.216827,60.862713 324.644196,64.756187 324.071533,68.649666 
	C323.541229,68.608757 323.010925,68.567841 322.480621,68.526924 
	C321.806671,67.086342 321.132751,65.645767 320.271698,63.805183 
	C319.455627,65.513367 318.790009,66.906601 318.057281,68.440247 
	C312.792694,62.175205 313.845337,52.681583 321.128479,45.697105 
	C322.755554,49.430130 324.217438,52.784142 325.734406,56.553696 
z"/>
<path fill="#83B44C" opacity="1.000000" stroke="none" 
	d="
M331.189819,56.304512 
	C333.401794,54.168026 335.406128,52.339813 337.564728,50.370853 
	C340.816101,57.119743 339.504639,61.867954 333.045258,68.650803 
	C331.405243,68.542534 332.373291,62.884319 327.778625,68.830589 
	C327.825867,67.957787 327.873077,67.084984 327.920319,66.212181 
	C328.940918,63.012383 329.961517,59.812584 331.189819,56.304512 
z"/>
<path fill="#83B44C" opacity="1.000000" stroke="none" 
	d="
M306.605347,68.144356 
	C301.638763,63.217442 299.760559,57.795963 301.992188,51.246735 
	C308.471222,52.678535 312.210083,58.583920 311.761871,66.855408 
	C310.344025,65.857094 309.138458,65.008255 307.397217,63.782223 
	C307.529724,65.648338 307.627502,66.954300 307.699860,68.261673 
	C307.703339,68.324471 307.484924,68.451118 307.365753,68.456398 
	C307.208038,68.463371 307.046387,68.379890 306.605347,68.144356 
z"/>
<path fill="#F4E2BC" opacity="1.000000" stroke="none" 
	d="
M308.289001,152.725235 
	C313.814819,152.729187 318.923492,152.763641 324.015839,153.069748 
	C324.983429,153.127930 325.886383,154.261688 326.819153,154.899170 
	C325.827423,155.404358 324.815857,156.381882 323.847107,156.341110 
	C314.873230,155.963623 305.933899,154.872910 296.923340,156.407639 
	C294.765594,156.775162 292.331207,155.518524 289.585724,154.912048 
	C291.720184,149.668015 295.357056,153.900696 297.971771,153.185669 
	C301.068878,152.338669 304.550995,152.899429 308.289001,152.725235 
z"/>
<path fill="#44AFE6" opacity="1.000000" stroke="none" 
	d="
M323.937805,90.763000 
	C323.632965,89.710716 323.328156,88.658432 322.994263,87.275101 
	C323.479401,86.326820 324.065826,85.755760 324.495361,85.084320 
	C326.295898,82.269608 328.925690,80.818336 331.963623,82.218185 
	C334.924622,83.582588 336.382416,86.320557 335.748718,90.010803 
	C335.453583,90.947166 334.893463,91.687241 333.746796,92.689743 
	C330.086121,92.222443 327.011963,91.492722 323.937805,90.763000 
z"/>
<path fill="#83B44C" opacity="1.000000" stroke="none" 
	d="
M342.486145,61.464180 
	C344.871796,60.177555 346.988342,59.133080 349.674683,57.807426 
	C350.222534,65.007111 347.182922,69.010605 342.277985,71.922516 
	C341.168640,70.831718 340.171783,69.851501 338.229309,67.941475 
	C339.153107,66.497009 340.685059,64.101669 342.486145,61.464180 
z"/>
<path fill="#7EAA57" opacity="1.000000" stroke="none" 
	d="
M299.607147,70.381332 
	C298.740295,70.647018 297.521576,71.418953 297.061554,71.099251 
	C292.926544,68.225609 290.317566,64.458717 290.758972,59.115715 
	C296.232117,58.848175 301.942566,63.656212 302.389343,68.844650 
	C302.405853,69.036118 301.520569,69.305267 300.539673,69.354324 
	C299.884949,69.574066 299.746033,69.977699 299.607147,70.381332 
z"/>
<path fill="#C0E5E3" opacity="1.000000" stroke="none" 
	d="
M282.488953,140.989471 
	C285.988831,140.749924 289.488708,140.510391 293.006744,140.269608 
	C293.797607,141.929001 294.599792,143.612183 295.766449,146.060043 
	C292.121552,146.060043 288.585968,146.066803 285.050446,146.055862 
	C284.010559,146.052658 282.970825,145.999329 281.474243,145.665619 
	C279.732056,144.256317 278.446686,143.150375 277.161285,142.044434 
	C278.777802,141.723511 280.394318,141.402512 282.010864,141.081787 
	C282.170044,141.050186 282.329590,141.020187 282.488953,140.989471 
z"/>
<path fill="#C0E5E3" opacity="1.000000" stroke="none" 
	d="
M324.780945,145.067368 
	C320.875763,145.705719 316.985809,146.505829 313.055359,146.875076 
	C311.998383,146.974365 310.066132,145.954727 309.851990,145.113632 
	C309.412201,143.386169 309.509827,141.309021 310.098694,139.624924 
	C310.380920,138.817657 313.128571,137.922028 313.328979,138.179596 
	C316.159515,141.817566 320.824036,139.924927 324.523804,142.335815 
	C324.887970,143.501770 324.834442,144.284561 324.780945,145.067368 
z"/>
<path fill="#EF534B" opacity="1.000000" stroke="none" 
	d="
M308.051025,93.604721 
	C307.602570,93.137238 307.154083,92.669754 306.412720,91.765091 
	C305.753082,90.868042 305.386414,90.408173 305.019714,89.948303 
	C305.019714,89.948303 305.001862,90.004593 305.030090,90.012405 
	C307.669373,84.075226 309.866608,83.272903 314.749176,87.202301 
	C314.849854,93.064987 313.846252,93.897057 308.051025,93.604721 
z"/>
<path fill="#7EAA57" opacity="1.000000" stroke="none" 
	d="
M357.789673,68.634583 
	C355.484497,71.824730 353.230042,74.636993 350.747009,77.734383 
	C349.317383,75.572952 348.615540,74.511887 347.606781,72.986763 
	C350.556427,67.679100 354.036163,65.933922 357.789673,68.634583 
z"/>
<path fill="#F4E2BC" opacity="1.000000" stroke="none" 
	d="
M344.872131,156.005508 
	C340.380859,155.999069 336.318237,156.171249 332.287170,155.890518 
	C331.064667,155.805374 329.929413,154.468277 328.754181,153.704590 
	C329.036652,153.292313 329.319153,152.880020 329.601624,152.467743 
	C336.272797,152.811249 342.943970,153.154755 349.615143,153.498260 
	C349.624420,154.169037 349.633667,154.839813 349.642914,155.510590 
	C348.199585,155.677124 346.756256,155.843674 344.872131,156.005508 
z"/>
<path fill="#7EAA57" opacity="1.000000" stroke="none" 
	d="
M283.311523,67.258240 
	C288.210846,66.744858 290.995636,69.269028 293.474243,73.506729 
	C291.676453,74.296211 288.951904,75.992004 288.576874,75.574982 
	C286.406311,73.161285 284.789795,70.249390 283.311523,67.258240 
z"/>
<path fill="#F6F3ED" opacity="1.000000" stroke="none" 
	d="
M307.785767,93.814064 
	C313.846252,93.897057 314.849854,93.064987 314.997192,87.412994 
	C315.360992,86.996811 315.753265,86.989723 316.439697,86.985901 
	C316.517456,89.329803 316.301025,91.670464 316.065857,94.399002 
	C314.971832,97.128281 313.896515,99.469688 312.284729,102.979126 
	C310.331238,99.306953 308.925903,96.665184 307.785767,93.814064 
z"/>
<path fill="#60C2BB" opacity="1.000000" stroke="none" 
	d="
M343.979675,145.037384 
	C341.414978,145.549789 338.850281,146.062195 336.084320,146.614792 
	C336.135315,140.447952 337.715759,139.656952 343.870483,142.160217 
	C345.358582,142.023956 346.183929,141.873413 347.009277,141.722885 
	C347.251556,142.451889 347.493866,143.180893 347.101257,144.027191 
	C345.637451,144.442139 344.808563,144.739761 343.979675,145.037384 
z"/>
<path fill="#C0E5E3" opacity="1.000000" stroke="none" 
	d="
M361.413574,145.843201 
	C360.498718,144.192398 359.616089,142.872406 358.139954,140.664856 
	C362.015594,140.905441 365.750458,141.137299 369.733765,141.384583 
	C367.903229,145.386154 365.321320,147.000259 361.413574,145.843201 
z"/>
<path fill="#7EAA57" opacity="1.000000" stroke="none" 
	d="
M356.621216,76.155136 
	C358.435486,76.050560 359.889587,76.050560 361.343689,76.050560 
	C361.612457,76.549248 361.881195,77.047928 362.149963,77.546616 
	C359.396423,79.339050 356.642883,81.131485 353.889343,82.923920 
	C353.339691,82.287224 352.790009,81.650528 352.240356,81.013832 
	C353.580597,79.429131 354.920837,77.844421 356.621216,76.155136 
z"/>
<path fill="#7EAA57" opacity="1.000000" stroke="none" 
	d="
M282.907928,81.225578 
	C280.829956,80.190216 279.101868,79.318443 277.373779,78.446671 
	C278.065186,77.474159 278.756592,76.501656 279.447998,75.529144 
	C282.308594,76.285187 285.169189,77.041229 288.029785,77.797264 
	C288.074768,78.570053 288.119781,79.342842 288.164764,80.115631 
	C286.529114,80.540146 284.893494,80.964661 282.907928,81.225578 
z"/>
<path fill="#60C2BB" opacity="1.000000" stroke="none" 
	d="
M282.390167,140.634003 
	C282.329590,141.020187 282.170044,141.050186 282.010864,141.081787 
	C280.394318,141.402512 278.777802,141.723511 277.161285,142.044434 
	C278.446686,143.150375 279.732056,144.256317 281.145081,145.735657 
	C279.283936,145.550339 276.996765,145.389374 275.455933,144.233490 
	C274.855255,143.782883 275.656433,139.805328 276.302124,139.665527 
	C278.166931,139.261841 280.277374,139.992996 282.390167,140.634003 
z"/>
<path fill="#0FA99F" opacity="1.000000" stroke="none" 
	d="
M325.008911,145.396210 
	C324.834442,144.284561 324.887970,143.501770 324.877960,142.329559 
	C325.001282,141.656326 325.188110,141.372498 325.657684,141.450150 
	C326.183319,142.782074 326.426208,143.752487 326.669128,144.722916 
	C326.984650,144.710480 327.300201,144.698044 327.615753,144.685608 
	C327.796509,143.491104 327.977295,142.296616 328.158051,141.102112 
	C328.869873,142.397842 329.581696,143.693573 330.866089,146.031570 
	C328.032928,145.877304 326.634918,145.801178 325.008911,145.396210 
z"/>
<path fill="#C0E5E3" opacity="1.000000" stroke="none" 
	d="
M327.780579,141.093430 
	C327.977295,142.296616 327.796509,143.491104 327.615753,144.685608 
	C327.300201,144.698044 326.984650,144.710480 326.669128,144.722916 
	C326.426208,143.752487 326.183319,142.782074 325.916626,141.439117 
	C326.396210,141.072632 326.899658,141.078690 327.780579,141.093430 
z"/>
<path fill="#C0E5E3" opacity="1.000000" stroke="none" 
	d="
M344.039368,145.372589 
	C344.808563,144.739761 345.637451,144.442139 346.796875,144.197235 
	C346.766205,146.082443 346.690735,148.508560 344.039368,145.372589 
z"/>
<path fill="#F6F3ED" opacity="1.000000" stroke="none" 
	d="
M346.938110,141.410019 
	C346.183929,141.873413 345.358582,142.023956 344.267944,142.076721 
	C344.957428,141.684998 345.912170,141.391068 346.938110,141.410019 
z"/>
<path fill="#F6F3ED" opacity="1.000000" stroke="none" 
	d="
M323.675293,90.969955 
	C327.011963,91.492722 330.086121,92.222443 333.592041,92.923370 
	C332.301331,95.811241 330.578918,98.727905 328.220886,102.720825 
	C326.385651,98.314552 324.899200,94.745728 323.675293,90.969955 
z"/>
<path fill="#FDFEFE" opacity="1.000000" stroke="none" 
	d="
M304.800812,90.214233 
	C305.386414,90.408173 305.753082,90.868042 306.204376,91.639252 
	C305.719971,91.460449 305.150940,90.970314 304.800812,90.214233 
z"/>
<path fill="#FDFEFE" opacity="1.000000" stroke="none" 
	d="
M299.832275,70.150055 
	C299.746033,69.977699 299.884949,69.574066 300.244507,69.294464 
	C300.329254,69.585251 300.193329,69.752014 299.832275,70.150055 
z"/>
</svg>